:FULLY-SPECIFIED
:FORCE-ALL-JOINTS-BE-3DOF
:DEGREES
272
root 8.82368 15.6513 -24.5163 13.4226 71.681 10.3321
lfemur -35.9293 18.8932 -21.8268
ltibia 58.6215 -0 0
lfoot -12.0212 -15.5285 -0.279957
ltoes 42.6793 -0 0
rfemur -22.8141 3.50727 15.2722
rtibia 44.9532 -0 0
rfoot -12.6945 -33.7007 2.46958
rtoes 46.7047 -0 0
lowerback 4.78005 -4.97224 -2.29414
upperback 1.78982 -6.67093 1.43602
thorax -0.450519 -3.25556 3.02729
lowerneck -5.15463 -10.5652 -5.09879
upperneck 2.59634 -13.893 4.05584
head 2.44048 -6.92536 1.59829
lclavicle -9.62325e-15 3.23601e-14 6.8017e-32
lhumerus -48.1707 -35.607 113.86
lradius 62.9843 -0 0
lwrist 14.8758 0 0
lhand 4.89574 9.80516 -0.972542
lfingers 7.12502 -0 0
lthumb 30.4156 38.9561 -0.0972586
rclavicle -9.62325e-15 3.23601e-14 6.8017e-32
rhumerus -62.0973 -0.650164 -94.7425
rradius 67.9056 -0 0
rwrist 22.7715 0 0
rhand -19.6866 -8.17202 -2.00104
rfingers 7.12502 -0 0
rthumb 6.64382 -38.0528 -1.91878
273
root 8.90485 15.6323 -24.4709 14.5335 72.7409 12.0599
lfemur -35.0877 18.3106 -21.9516
ltibia 58.6801 -0 0
lfoot -11.921 -16.4817 -0.248103
ltoes 43.2712 -0 0
rfemur -23.7831 3.34981 15.6978
rtibia 45.4045 -0 0
rfoot -11.4021 -33.2394 2.54785
rtoes 46.367 -0 0
lowerback 4.98082 -5.04459 -2.5258
upperback 1.96418 -6.77898 1.20351
thorax -0.378353 -3.31065 2.92853
lowerneck -4.94106 -10.7528 -5.26215
upperneck 2.62237 -14.1544 4.24734
head 2.44907 -7.05453 1.67939
lclavicle -8.86838e-15 3.22108e-14 1.66093e-31
lhumerus -47.8391 -35.8804 113.342
lradius 62.903 -0 0
lwrist 14.8619 0 0
lhand 5.32188 9.86841 -0.949074
lfingers 7.12502 -0 0
lthumb 30.8181 38.9058 -0.0986741
rclavicle -8.86838e-15 3.22108e-14 1.66093e-31
rhumerus -62.8923 0.115488 -95.7938
rradius 68.1562 -0 0
rwrist 22.7195 0 0
rhand -20.1071 -7.69088 -1.97021
rfingers 7.12502 -0 0
rthumb 6.23794 -37.5785 -1.88906
274
root 8.98197 15.6138 -24.4287 15.8145 73.7438 13.9682
lfemur -34.186 17.7088 -22.0587
ltibia 58.6913 -0 0
lfoot -11.8418 -17.4504 -0.214748
ltoes 43.879 -0 0
rfemur -24.7848 3.17627 16.1105
rtibia 45.8707 -0 0
rfoot -10.0969 -32.7191 2.60764
rtoes 46.0348 -0 0
lowerback 5.17877 -5.11444 -2.76051
upperback 2.14061 -6.88381 0.957645
thorax -0.303346 -3.36465 2.81773
lowerneck -4.72941 -10.9343 -5.41781
upperneck 2.64945 -14.4092 4.44107
head 2.45853 -7.18012 1.76015
lclavicle -8.0988e-15 3.19719e-14 2.62452e-31
lhumerus -47.5057 -36.1675 112.811
lradius 62.8117 -0 0
lwrist 14.8572 0 0
lhand 5.78891 9.95069 -0.919182
lfingers 7.12502 -0 0
lthumb 31.2586 38.8554 -0.0994001
rclavicle -8.0988e-15 3.19719e-14 2.62452e-31
rhumerus -63.654 0.897551 -96.7964
rradius 68.3987 -0 0
rwrist 22.6257 0 0
rhand -20.55 -7.24792 -1.92605
rfingers 7.12502 -0 0
rthumb 5.81045 -37.1422 -1.84655
275
root 9.05466 15.596 -24.3901 17.2798 74.684 16.0708
lfemur -33.2234 17.0876 -22.1481
ltibia 58.6529 -0 0
lfoot -11.7847 -18.4337 -0.180458
ltoes 44.5024 -0 0
rfemur -25.819 2.98594 16.5098
rtibia 46.3516 -0 0
rfoot -8.78076 -32.1388 2.64635
rtoes 45.7091 -0 0
lowerback 5.37345 -5.18162 -2.99799
upperback 2.31892 -6.98506 0.698263
thorax -0.225488 -3.41741 2.69454
lowerneck -4.52022 -11.1091 -5.56509
upperneck 2.67766 -14.6566 4.6368
head 2.46892 -7.30178 1.84043
lclavicle -7.31512e-15 3.16401e-14 3.55032e-31
lhumerus -47.1706 -36.4685 112.267
lradius 62.7103 -0 0
lwrist 14.8623 0 0
lhand 6.29786 10.0528 -0.882942
lfingers 7.12502 -0 0
lthumb 31.7381 38.8048 -0.099369
rclavicle -7.31512e-15 3.16401e-14 3.55032e-31
rhumerus -64.3789 1.69816 -97.746
rradius 68.6323 -0 0
rwrist 22.4884 0 0
rhand -21.0154 -6.84567 -1.86839
rfingers 7.12502 -0 0
rthumb 5.36119 -36.7466 -1.79111
276
root 9.12254 15.579 -24.3554 18.9403 75.5557 18.3784
lfemur -32.1994 16.4467 -22.2203
ltibia 58.563 -0 0
lfoot -11.7505 -19.4308 -0.145854
ltoes 45.1412 -0 0
rfemur -26.8856 2.778 16.8948
rtibia 46.847 -0 0
rfoot -7.45551 -31.4974 2.66131
rtoes 45.3905 -0 0
lowerback 5.56439 -5.24596 -3.23795
upperback 2.49889 -7.08239 0.425218
thorax -0.14477 -3.46877 2.55864
lowerneck -4.31402 -11.277 -5.7033
upperneck 2.70705 -14.8959 4.83431
head 2.48026 -7.41913 1.92007
lclavicle -6.51795e-15 3.12118e-14 4.41616e-31
lhumerus -46.8341 -36.7836 111.71
lradius 62.5986 -0 0
lwrist 14.8774 0 0
lhand 6.84977 10.1755 -0.84049
lfingers 7.12502 -0 0
lthumb 32.2573 38.7543 -0.0985129
rclavicle -6.51795e-15 3.12118e-14 4.41616e-31
rhumerus -65.0632 2.51955 -98.638
rradius 68.8563 -0 0
rwrist 22.3059 0 0
rhand -21.5034 -6.48666 -1.79716
rfingers 7.12502 -0 0
rthumb 4.89 -36.3941 -1.72268
277
root 9.18522 15.5629 -24.3249 20.8017 76.3529 20.8962
lfemur -31.1136 15.7859 -22.2757
ltibia 58.4195 -0 0
lfoot -11.7404 -20.4407 -0.111609
ltoes 45.7949 -0 0
rfemur -27.9843 2.55161 17.2652
rtibia 47.3569 -0 0
rfoot -6.12313 -30.7942 2.64981
rtoes 45.0799 -0 0
lowerback 5.75111 -5.30727 -3.48012
upperback 2.68031 -7.17544 0.138366
thorax -0.0611833 -3.51855 2.40967
lowerneck -4.11134 -11.4372 -5.83177
upperneck 2.73771 -15.1265 5.03337
head 2.4926 -7.53184 1.99893
lclavicle -5.70791e-15 3.06837e-14 5.19833e-31
lhumerus -46.4962 -37.1129 111.139
lradius 62.4761 -0 0
lwrist 14.903 0 0
lhand 7.44567 10.3197 -0.792027
lfingers 7.12502 -0 0
lthumb 32.8172 38.7038 -0.0967638
rclavicle -5.70791e-15 3.06837e-14 5.19833e-31
rhumerus -65.703 3.36406 -99.4678
rradius 69.0699 -0 0
rwrist 22.0766 0 0
rhand -22.0143 -6.17344 -1.71238
rfingers 7.12502 -0 0
rthumb 4.39666 -36.0872 -1.64126
278
root 9.24232 15.5478 -24.299 22.861 77.0699 23.621
lfemur -29.9655 15.1046 -22.3148
ltibia 58.2204 -0 0
lfoot -11.7554 -21.4627 -0.0784479
ltoes 46.4633 -0 0
rfemur -29.1151 2.30583 17.6202
rtibia 47.8812 -0 0
rfoot -4.7857 -30.0282 2.6091
rtoes 44.778 -0 0
lowerback 5.93314 -5.36541 -3.7242
upperback 2.86297 -7.26387 -0.162434
thorax 0.0252796 -3.5666 2.24732
lowerneck -3.91272 -11.5896 -5.94979
upperneck 2.76972 -15.3476 5.23373
head 2.506 -7.63955 2.07685
lclavicle -4.88561e-15 3.00522e-14 5.87157e-31
lhumerus -46.157 -37.4566 110.555
lradius 62.3426 -0 0
lwrist 14.9396 0 0
lhand 8.0866 10.4861 -0.737822
lfingers 7.12502 -0 0
lthumb 33.4188 38.6535 -0.0940536
rclavicle -4.88561e-15 3.00522e-14 5.87157e-31
rhumerus -66.2939 4.23408 -100.231
rradius 69.2724 -0 0
rwrist 21.7988 0 0
rhand -22.5484 -5.90857 -1.61417
rfingers 7.12502 -0 0
rthumb 3.88095 -35.8285 -1.54698
